<?xml version="1.0" encoding="UTF-8"?>
<svg width="400" height="400" viewBox="0 0 400 400" fill="none" xmlns="http://www.w3.org/2000/svg">
  <!-- Background shape -->
  <rect x="50" y="80" width="300" height="240" rx="20" fill="#F5F5F5"/>
  
  <!-- Person figure -->
  <path d="M180 200 Q200 180 220 200 L220 260 L180 260 Z" fill="#333333"/>
  <circle cx="200" cy="170" r="20" fill="#333333"/>
  
  <!-- Board/Screen -->
  <rect x="240" y="140" width="80" height="120" rx="4" fill="#FFFFFF" stroke="#333333" stroke-width="2"/>
  
  <!-- Task items on board -->
  <rect x="250" y="160" width="60" height="8" rx="2" fill="#666666"/>
  <rect x="250" y="180" width="40" height="8" rx="2" fill="#666666"/>
  <rect x="250" y="200" width="50" height="8" rx="2" fill="#666666"/>
  
  <!-- Checkmark -->
  <path d="M260 220 L270 230 L290 210" stroke="#4CAF50" stroke-width="3" stroke-linecap="round"/>
  
  <!-- Decorative elements -->
  <circle cx="150" cy="150" r="5" fill="#333333"/>
  <circle cx="320" cy="250" r="5" fill="#333333"/>
  <path d="M140 280 L160 280" stroke="#333333" stroke-width="2" stroke-linecap="round"/>
  <path d="M300 120 L320 120" stroke="#333333" stroke-width="2" stroke-linecap="round"/>
</svg> 